<svg
  class="canvas"
  version="1.1"
  xmlns="http://www.w3.org/2000/svg"
  xmlns:xlink="http://www.w3.org/1999/xlink"
  width="100%"
  height="100%"
  viewBox="0 0 1200 600"
>
  <g
    class="logo-entity"
    id="symbol"
    transform="translate(846.5312805175781, 262.919728149878) scale(1.13)"
  >
    <g class="logo-entity-inner">
      <g data-noun-id="195246" transform="scale(1.4080343208365704)">
        <path
          fill="#ff6c03"
          d="M14.631,17.821l18.844,65.984c0.336,1.175,1.762,1.958,2.936,1.622c1.202-0.336,1.985-1.733,1.649-2.936
   L27.855,46.843h5.368c4.809,0,7.102,2.712,10.289,6.235c3.215,3.523,7.297,7.801,14.314,7.969
   c5.425,0.112,10.541-2.46,15.126-5.844c4.558-3.411,8.64-7.717,11.994-11.547c0.588-0.671,0.728-1.706,0.364-2.517
   c-0.392-0.839-1.259-1.398-2.153-1.398h-13.42c-2.908,0-4.753-1.118-6.683-3.188c-1.957-2.069-3.719-5.117-5.76-8.332
   s-4.333-6.598-7.632-9.254s-7.633-4.474-13.197-4.474H17.063C14.966,14.494,14.128,16.088,14.631,17.821L14.631,17.821z
    M19.971,19.219h16.496c4.558,0,7.633,1.342,10.205,3.439c2.6,2.069,4.669,5.005,6.626,8.108s3.803,6.375,6.291,9.031
   c2.488,2.656,5.871,4.669,10.149,4.669h7.94c-2.377,2.488-4.894,4.949-7.577,6.934c-4.11,3.048-8.332,5.005-12.162,4.921
   c-5.229-0.14-7.717-2.936-10.904-6.458c-3.187-3.495-7.102-7.745-13.812-7.745h-6.71L19.971,19.219z"
          transform="translate(-14.4889497756958,-14.492997169494629)"
        ></path>
      </g>
    </g>
  </g>
  <g
    class="logo-entity"
    id="title"
    transform="translate(319.46875, 253.76695291679005) scale(1.501)"
  >
    <text
      font-size="80px"
      dominant-baseline="text-before-edge"
      alignment-baseline="text-before-edge"
      fill="#000000"
      font-family="Lato, sans-serif"
    >
      ClearPilot
    </text>
  </g>
</svg>
