<?xml version="1.0" encoding="utf-8"?>
<svg xmlns="http://www.w3.org/2000/svg" viewBox="9.1009 7.2815 143.9381 29.3123" width="143.938px" height="29.3123px" preserveAspectRatio="none"><g id="object-0"><title>Layer 1</title><g stroke="null" id="svg_1" transform="translate(4 4) scale(0.145 0.145)"><path stroke="null" id="svg_2" d="M 35.579 31.395 L 88.65 205.165 C 89.597 208.26 93.613 210.322 96.919 209.437 C 100.304 208.552 106.524 204.873 105.577 201.705 L 76.836 107.825 L 87.941 107.825 C 101.484 107.825 107.942 114.967 116.918 124.245 C 125.973 133.523 137.469 144.789 157.232 145.232 C 172.51 145.527 186.919 138.753 199.832 129.842 C 212.669 120.859 224.165 109.519 233.611 99.432 C 235.267 97.665 235.662 94.939 234.637 92.804 C 233.533 90.594 231.091 89.122 228.573 89.122 L 190.777 89.122 C 182.587 89.122 177.391 86.178 171.956 80.726 C 166.444 75.278 161.481 67.251 155.733 58.784 C 149.985 50.317 143.53 41.408 134.239 34.413 C 124.948 27.419 112.741 22.631 97.071 22.631 L 42.428 22.631 C 36.522 22.634 34.162 26.831 35.579 31.395 Z M 88.352 54.345 L 98.683 71.205 C 111.52 71.205 116.968 68.316 124.212 73.839 C 131.534 79.287 141.376 78.188 146.888 86.36 C 152.4 94.532 155.19 82.275 162.197 89.27 C 169.204 96.264 178.732 101.565 190.78 101.565 L 216.353 99.96 C 209.659 106.512 199.359 114.599 191.802 119.826 C 180.227 127.853 211.691 117.753 200.904 117.532 C 186.177 117.163 224.129 108.997 215.153 99.721 C 206.177 90.517 153.403 97.791 87.941 92.171 L 69.043 95.382 C 94.994 109.131 342.421 151.815 88.352 54.345 Z" fill="#ff6c03"/></g><text id="svg_3" style="dominant-baseline: hanging; fill: rgb(255, 255, 255); font-family: Lato, Arial, sans-serif; font-size: 24px; font-weight: 700; white-space: pre; alignment-baseline: hanging;" x="40" y="14">ClearPilot</text></g></svg>